# xmcd
#
# Track frame offsets:
#	150
#	20323
#	35244
#	46336
#	58901
#	81932
#	97637
#	114240
#	125584
#	139790
#	151493
#	162765
#	185824
#	202834
#	218046
#	229830
#	242905
#	260587
#	275447
#	287023
#
# Disc length: 4009 seconds
#
# Revision: 1
# Processed by: cddbd v1.5.2PL0 Copyright (c) Steve Scherf et al.
# Submitted via: audiograbber 1.83.01
#
DISCID=1e0fa714
DTITLE=diverse - Ein Kessel Buntes III - Die DDR-Stars der Bruderländer (Die sc
DTITLE=hönsten Momente aus der grossen Gala-Show) CD1
DYEAR=1900
DGENRE=
TTITLE0=Alla Pugatschowa - Harlekino   
TTITLE1=Bisser Kirow - Macht alle Türen und Fenster auf   
TTITLE2=Ivica Serfezi - Maria-Helena   
TTITLE3=Klári Katona - Sterne müsste es regnen   
TTITLE4=Chris Doerk - Die Rose von Chile    
TTITLE5=Gjon Delhusa - Ticke Tom    
TTITLE6=Homo Homini - Liebe Karolina   
TTITLE7=Fonograf - Mädchen in der ersten Reihe   
TTITLE8=Gruppe 2 and 1 - Hei, ich fang den Sommer   
TTITLE9=Hungária - Komm, ich brauche deine Liebe   
TTITLE10=Kati Kovacs - Es wird dunkel, wenn kein Feuer brennt   
TTITLE11=Locomotiv GT - Ich wart' auf dich irgendwo   
TTITLE12=Pavol Hammel and Prudy - Schluss mit den Märchen   
TTITLE13=Bergendy - Kalt ist's   
TTITLE14=Yalla - Wie schade   
TTITLE15=Troubadours - Herrliches Land   
TTITLE16=Anawa - Glaube daran   
TTITLE17=Dean Reed - Love Your Brother   
TTITLE18=Katja and Roman - Worauf soll ich warten   
TTITLE19=General - Hier war ich Kind   
EXTD=
EXTT0=
EXTT1=
EXTT2=
EXTT3=
EXTT4=
EXTT5=
EXTT6=
EXTT7=
EXTT8=
EXTT9=
EXTT10=
EXTT11=
EXTT12=
EXTT13=
EXTT14=
EXTT15=
EXTT16=
EXTT17=
EXTT18=
EXTT19=
PLAYORDER=
